<?xml version="1.0" standalone="no"?>
<!DOCTYPE svg PUBLIC "-//W3C//DTD SVG 20010904//EN"
 "http://www.w3.org/TR/2001/REC-SVG-20010904/DTD/svg10.dtd">
<svg version="1.0" xmlns="http://www.w3.org/2000/svg"
 width="300.000000pt" height="225.000000pt" viewBox="0 0 300.000000 225.000000"
 preserveAspectRatio="xMidYMid meet">
<metadata>
Created by potrace 1.10, written by Peter Selinger 2001-2011
</metadata>
<g transform="translate(0.000000,225.000000) scale(0.050000,-0.050000)"
fill="#f20707" stroke="none">
<path d="M2083 3927 c-26 -6 -87 -50 -135 -98 l-88 -88 0 -1488 0 -1488 99
-92 99 -93 248 0 c428 0 472 60 477 644 2 212 7 353 12 312 5 -51 19 -78 46
-86 34 -11 49 -37 34 -56 -3 -4 11 -23 30 -42 19 -19 35 -48 35 -64 0 -16 8
-44 18 -63 10 -19 56 -125 102 -235 46 -110 101 -215 122 -233 21 -18 38 -41
38 -51 0 -77 169 -126 432 -126 l265 0 86 67 c48 37 85 78 82 90 -3 13 5 23
17 23 24 0 10 116 -21 177 -9 18 -37 80 -62 138 -25 58 -55 105 -66 105 -11 0
-14 5 -8 12 12 11 -78 230 -102 248 -24 18 -63 99 -63 130 0 16 -9 30 -20 30
-11 0 -20 16 -20 36 0 19 -12 53 -26 75 -57 84 -130 321 -92 298 19 -12 178
172 178 206 0 14 11 25 23 25 13 0 18 5 12 12 -7 7 4 30 24 51 206 222 161
1084 -64 1224 -19 13 -35 33 -35 46 0 28 -180 187 -212 187 -36 0 -149 62
-140 77 4 7 -16 14 -45 16 -29 2 -111 19 -183 37 -129 33 -982 62 -1097 37z
m1030 -217 c427 -81 669 -341 701 -752 28 -363 -128 -704 -383 -839 -114 -61
-141 29 219 -709 171 -349 310 -640 310 -647 0 -7 -133 -10 -296 -7 l-296 6
-259 598 -259 599 -135 1 -135 0 0 -600 0 -600 -275 0 -275 0 0 1490 0 1490
463 0 c328 0 509 -9 620 -30z"/>
<path d="M2580 2850 l0 -490 141 0 c377 0 519 138 519 504 0 339 -148 476
-514 476 l-146 0 0 -490z m225 -95 c3 -107 -2 -195 -10 -195 -8 0 -13 133 -11
295 3 297 11 261 21 -100z m130 325 c63 0 85 -55 85 -216 0 -166 -42 -264
-113 -264 -16 0 -24 -9 -17 -20 17 -28 -17 -25 -46 4 -66 66 -22 575 45 514
10 -10 31 -18 46 -18z"/>
</g>
</svg>
